# xmcd
#
# Track frame offsets: 
#        150
#        8909
#        19146
#        32572
#        45561
#        57969
#        68501
#        86164
#        94574
#        106720
#        117170
#        127997
#        141679
#        153183
#
# Disc length: 2259 seconds
#
# Revision: 0
# Processed by: cddbd v1.5.2PL0 Copyright (c) Steve Scherf et al.
# Submitted via: ExactAudioCopy v0.95b3
#
DISCID=ab08d10e
DTITLE=Big Country Bluegrass - On Fire
DYEAR=2006
DGENRE=Bluegrass
TTITLE0=Cold Rain
TTITLE1=Down In Caroline
TTITLE2=Hicker Nut Ridge
TTITLE3=Memories
TTITLE4=I Am Ready
TTITLE5=On Fire
TTITLE6=Mother's Prayers Were Not In Vain
TTITLE7=Bringing In The Georgia Mail
TTITLE8=The Rose Will Bloom Again
TTITLE9=When I Receive My Crown
TTITLE10=Let Her Go, God Bless Her
TTITLE11=Old Old House
TTITLE12=Tallahassee
TTITLE13=Plant Some Flowers By My Grave
EXTD=
EXTT0=
EXTT1=
EXTT2=
EXTT3=
EXTT4=
EXTT5=
EXTT6=
EXTT7=
EXTT8=
EXTT9=
EXTT10=
EXTT11=
EXTT12=
EXTT13=
PLAYORDER=
